<svg id="Grupo_1946" data-name="Grupo 1946" xmlns="http://www.w3.org/2000/svg" width="27.837" height="27.837" viewBox="0 0 27.837 27.837">
  <ellipse id="Elipse_408" data-name="Elipse 408" cx="11.714" cy="11.714" rx="11.714" ry="11.714" transform="translate(0 22.903) rotate(-77.843)" fill="#707070"/>
  <g id="Grupo_1945" data-name="Grupo 1945" transform="translate(6.654 7.953)">
    <path id="Trazado_1118" data-name="Trazado 1118" d="M29.643,121.414a6.392,6.392,0,0,1-1.461.409c.234-.029.584-.467.73-.643a3.239,3.239,0,0,0,.5-.876c0-.029.029-.058,0-.088h-.088a8.792,8.792,0,0,1-1.723.672c-.058,0-.088,0-.117-.029-.058-.058-.088-.117-.146-.146a4.134,4.134,0,0,0-.847-.526,2.773,2.773,0,0,0-1.285-.2,3.142,3.142,0,0,0-2.22,1.168,2.759,2.759,0,0,0-.584,1.168,3.614,3.614,0,0,0-.029,1.256c0,.058,0,.088-.058.058a9.232,9.232,0,0,1-5.959-3.038q-.088-.131-.175,0a3.012,3.012,0,0,0,.526,3.564,2.011,2.011,0,0,0,.38.321,3.174,3.174,0,0,1-1.139-.321c-.058-.058-.117-.029-.117.058a1.544,1.544,0,0,0,.029.351,3.093,3.093,0,0,0,1.87,2.425,1.889,1.889,0,0,0,.38.117,3.133,3.133,0,0,1-1.139.029c-.088-.029-.117.029-.088.117a3.222,3.222,0,0,0,2.366,1.986c.117.029.2.029.321.058l-.029.029c-.263.409-1.2.7-1.607.847a5.876,5.876,0,0,1-2.454.321c-.146-.029-.146-.029-.2,0-.029.029,0,.058.029.088.175.117.351.2.5.292A8.968,8.968,0,0,0,25.9,129.535a8.835,8.835,0,0,0,2.337-6.485c0-.088.117-.146.175-.2a6.306,6.306,0,0,0,1.139-1.2.272.272,0,0,0,.058-.234h0C29.7,121.385,29.7,121.385,29.643,121.414Z" transform="translate(-15.259 -119.975)" fill="#fff"/>
    <path id="Trazado_1119" data-name="Trazado 1119" d="M29.9,160.8Z" transform="translate(-25.623 -148.875)" fill="#fff" fill-rule="evenodd"/>
    <path id="Trazado_1120" data-name="Trazado 1120" d="M29.648,160.8Z" transform="translate(-25.371 -148.875)" fill="#fff" fill-rule="evenodd"/>
    <path id="Trazado_1121" data-name="Trazado 1121" d="M31.6,160.869c0-.029.263,0,0,0C31.6,160.839,31.629,160.869,31.6,160.869Z" transform="translate(-26.826 -148.914)" fill="#fff" fill-rule="evenodd"/>
    <path id="Trazado_1122" data-name="Trazado 1122" d="M48.958,120.4h0Z" transform="translate(-39.073 -120.276)" fill="#fff" fill-rule="evenodd"/>
  </g>
</svg>
