<svg id="Grupo_1953" data-name="Grupo 1953" xmlns="http://www.w3.org/2000/svg" width="30.563" height="30.563" viewBox="0 0 30.563 30.563">
  <circle id="Elipse_410" data-name="Elipse 410" cx="10.806" cy="10.806" r="10.806" transform="translate(0 15.281) rotate(-45)" fill="#707070"/>
  <g id="Grupo_1948" data-name="Grupo 1948" transform="translate(8.657 10.623)">
    <path id="Trazado_1127" data-name="Trazado 1127" d="M282.173,25.737a2.944,2.944,0,0,0-2.937-2.937h-7.6a2.944,2.944,0,0,0-2.937,2.937v3.557a2.944,2.944,0,0,0,2.937,2.937h7.6a2.944,2.944,0,0,0,2.937-2.937ZM277.35,27.7,274.3,29.375c-.135.081-.243-.027-.243-.162V25.764c0-.162.135-.243.243-.162l3.045,1.752A.194.194,0,0,1,277.35,27.7Z" transform="translate(-268.7 -22.8)" fill="#fff"/>
  </g>
</svg>
